<svg xmlns="http://www.w3.org/2000/svg" width="11.559" height="12.466" viewBox="0 0 11.559 12.466">
  <path id="Trazado_903387" data-name="Trazado 903387" d="M429.673,287.947c-1.412.822-2.967,1.275-3.755,2.311s-.8,2.656-1.218,4.252a4.922,4.922,0,0,1-.8-.932c-.316-.687-.526-1.422-.813-2.123-.666-1.635-1.752-2.632-3.661-2.424a4.942,4.942,0,0,1-1.315-.361c.55-.454.854-.924,1.178-.937,3.172-.134,4.624-1.781,4.524-4.909,0-.152.218-.311.57-.779a10.178,10.178,0,0,1,.615,1.538c.582,2.863.746,3.027,3.625,3.661C428.955,287.316,429.23,287.64,429.673,287.947Zm-3.8.3-1.624-1.553-1.28,1.609,1.305,1.414C424.82,289.215,425.271,288.8,425.872,288.247Z" transform="translate(-418.114 -282.045)" fill="#3fb6b2"/>
</svg>
