<svg xmlns="http://www.w3.org/2000/svg" width="303" height="236.708" viewBox="0 0 303 236.708">
  <g id="Grupo_1107188" data-name="Grupo 1107188" transform="translate(-389 -1410.854)">
    <g id="Grupo_1107187" data-name="Grupo 1107187">
      <g id="Grupo_1107186" data-name="Grupo 1107186">
        <g id="Grupo_1107185" data-name="Grupo 1107185">
          <rect id="Rectángulo_403311" data-name="Rectángulo 403311" width="31" height="51" rx="9" transform="translate(398.051 1410.854)" fill="#7f7b6c"/>
          <rect id="Rectángulo_403312" data-name="Rectángulo 403312" width="31" height="51" rx="9" transform="translate(433.051 1410.854)" fill="#7f7b6c"/>
          <rect id="Rectángulo_403313" data-name="Rectángulo 403313" width="31" height="51" rx="9" transform="translate(398.051 1469.854)" fill="#7f7b6c"/>
          <rect id="Rectángulo_403314" data-name="Rectángulo 403314" width="31" height="51" rx="9" transform="translate(433.051 1469.854)" fill="#7f7b6c"/>
          <rect id="Rectángulo_403315" data-name="Rectángulo 403315" width="31" height="51" rx="9" transform="translate(398.051 1526.854)" fill="#7f7b6c"/>
          <rect id="Rectángulo_403316" data-name="Rectángulo 403316" width="31" height="51" rx="9" transform="translate(433.051 1526.854)" fill="#7f7b6c"/>
          <rect id="Rectángulo_403317" data-name="Rectángulo 403317" width="31" height="51" rx="9" transform="translate(398.051 1583.854)" fill="#7f7b6c"/>
          <rect id="Rectángulo_403318" data-name="Rectángulo 403318" width="31" height="51" rx="9" transform="translate(433.051 1583.854)" fill="#7f7b6c"/>
          <rect id="Rectángulo_403319" data-name="Rectángulo 403319" width="31" height="51" rx="9" transform="translate(617.051 1410.854)" fill="#7f7b6c"/>
          <rect id="Rectángulo_403320" data-name="Rectángulo 403320" width="31" height="51" rx="9" transform="translate(652.051 1410.854)" fill="#7f7b6c"/>
          <rect id="Rectángulo_403321" data-name="Rectángulo 403321" width="31" height="51" rx="9" transform="translate(617.051 1469.854)" fill="#7f7b6c"/>
          <rect id="Rectángulo_403322" data-name="Rectángulo 403322" width="31" height="51" rx="9" transform="translate(652.051 1469.854)" fill="#7f7b6c"/>
          <rect id="Rectángulo_403323" data-name="Rectángulo 403323" width="31" height="51" rx="9" transform="translate(617.051 1526.854)" fill="#7f7b6c"/>
          <rect id="Rectángulo_403324" data-name="Rectángulo 403324" width="31" height="51" rx="9" transform="translate(652.051 1526.854)" fill="#7f7b6c"/>
          <rect id="Rectángulo_403325" data-name="Rectángulo 403325" width="31" height="51" rx="9" transform="translate(617.051 1583.854)" fill="#7f7b6c"/>
          <rect id="Rectángulo_403326" data-name="Rectángulo 403326" width="31" height="51" rx="9" transform="translate(652.051 1583.854)" fill="#7f7b6c"/>
          <path id="Trazado_906660" data-name="Trazado 906660" d="M-6377.051-9971.292v-186.814" transform="translate(6767.051 11618.854)" fill="none" stroke="#707070" stroke-width="2"/>
          <path id="Trazado_906661" data-name="Trazado 906661" d="M-6377.051-9971.292v-186.814" transform="translate(6847.051 11618.854)" fill="none" stroke="#707070" stroke-width="2"/>
          <path id="Trazado_906662" data-name="Trazado 906662" d="M-6377.051-9971.292v-186.814" transform="translate(6987.051 11618.854)" fill="none" stroke="#707070" stroke-width="4"/>
          <path id="Trazado_906663" data-name="Trazado 906663" d="M-6377.051-9971.292v-186.814" transform="translate(7067.051 11618.854)" fill="none" stroke="#707070" stroke-width="4"/>
          <path id="Trazado_906664" data-name="Trazado 906664" d="M-6377.051-10095.589h79.261" transform="translate(6767.051 11619.854)" fill="none" stroke="#707070" stroke-width="1"/>
          <path id="Trazado_906665" data-name="Trazado 906665" d="M-6377.051-10095.589h79.261" transform="translate(6767.051 11676.854)" fill="none" stroke="#707070" stroke-width="1"/>
          <path id="Trazado_906666" data-name="Trazado 906666" d="M-6377.051-10095.589h78.287" transform="translate(6987.051 11619.243)" fill="none" stroke="#707070" stroke-width="2"/>
          <path id="Trazado_906667" data-name="Trazado 906667" d="M-6377.051-10095.589h78.287" transform="translate(6987.051 11676.642)" fill="none" stroke="#707070" stroke-width="2"/>
          <path id="Trazado_906668" data-name="Trazado 906668" d="M-6377.051-10095.589h78.287" transform="translate(6987.051 11562.243)" fill="none" stroke="#707070" stroke-width="2"/>
          <path id="Trazado_906669" data-name="Trazado 906669" d="M-6377.051-10095.589h80" transform="translate(6767.051 11562.243)" fill="none" stroke="#707070" stroke-width="1"/>
          <path id="Trazado_906670" data-name="Trazado 906670" d="M-6377.051-10095.589h44.852" transform="translate(6847.051 11653.243)" fill="none" stroke="#707070" stroke-width="5"/>
          <path id="Trazado_906671" data-name="Trazado 906671" d="M-6377.051-10095.589h51.866" transform="translate(6935.185 11653.243)" fill="none" stroke="#707070" stroke-width="5"/>
          <path id="Trazado_906699" data-name="Trazado 906699" d="M-13.228-3.3a2.086,2.086,0,0,1-1.43.574A2.308,2.308,0,0,1-16.5-3.51a3.093,3.093,0,0,1-.68-2.1A3.148,3.148,0,0,1-16.8-7.131a2.858,2.858,0,0,1,1.069-1.113,2.915,2.915,0,0,1,1.521-.41,2.83,2.83,0,0,1,1.526.425,2.86,2.86,0,0,1,1.063,1.2,4.126,4.126,0,0,1,.393,1.79v.756a5.129,5.129,0,0,1-.554,2.449A3.823,3.823,0,0,1-13.356-.439a4.934,4.934,0,0,1-2.391.557h-.123V-1.465l.375-.006Q-13.456-1.57-13.228-3.3Zm-.9-.85a.961.961,0,0,0,.926-.557v-.82a2.133,2.133,0,0,0-.275-1.213.864.864,0,0,0-.744-.393.816.816,0,0,0-.7.445A1.978,1.978,0,0,0-15.2-5.607a1.774,1.774,0,0,0,.287,1.063A.918.918,0,0,0-14.124-4.148Zm9.879.662A4.074,4.074,0,0,1-5.021-.82,2.683,2.683,0,0,1-7.21.117a2.7,2.7,0,0,1-2.2-.943,4.067,4.067,0,0,1-.779-2.66V-5.045a4.074,4.074,0,0,1,.776-2.666,2.69,2.69,0,0,1,2.194-.937,2.691,2.691,0,0,1,2.2.943,4.077,4.077,0,0,1,.779,2.666ZM-6.22-5.3a3.043,3.043,0,0,0-.24-1.374.8.8,0,0,0-.762-.454.784.784,0,0,0-.741.422,2.866,2.866,0,0,0-.249,1.277v2.18a3.066,3.066,0,0,0,.24,1.4.806.806,0,0,0,.762.442.8.8,0,0,0,.744-.431A2.927,2.927,0,0,0-6.22-3.187ZM6.794-2.889a3.116,3.116,0,0,1-.48,1.573A2.9,2.9,0,0,1,5.08-.258,4.2,4.2,0,0,1,3.267.117,3.35,3.35,0,0,1,.618-.979,4.524,4.524,0,0,1-.349-4.072v-.422A5.164,5.164,0,0,1,.088-6.688,3.308,3.308,0,0,1,1.345-8.142a3.507,3.507,0,0,1,1.9-.513,3.677,3.677,0,0,1,2.5.817A3.23,3.23,0,0,1,6.812-5.584H4.761A1.528,1.528,0,0,0,4.368-6.7a1.615,1.615,0,0,0-1.125-.34,1.229,1.229,0,0,0-1.125.574,3.691,3.691,0,0,0-.375,1.834v.6A4.084,4.084,0,0,0,2.086-2.08a1.254,1.254,0,0,0,1.181.586,1.579,1.579,0,0,0,1.084-.334,1.418,1.418,0,0,0,.4-1.061Zm3.674-5.643,1.9,5.936,1.9-5.936h2.707V0H14.915V-1.992l.2-4.078L13.052,0H11.692L9.624-6.076l.2,4.084V0H7.767V-8.531Z" transform="translate(537.051 1561.854)" fill="#12263f"/>
        </g>
      </g>
    </g>
  </g>
</svg>
